<svg width="48" height="48" viewBox="0 0 48 48" fill="none" xmlns="http://www.w3.org/2000/svg">
<g clip-path="url(#clip0)">
<path d="M23.8098 23.8367H23.8913H23.8098ZM23.8098 23.8367H23.8551H23.8098ZM23.8098 23.8367V23.9182V23.8367ZM23.8098 23.8367V23.9454V23.8367ZM23.8098 23.8367V23.9364V23.8367ZM23.8098 23.7371L23.7555 23.8186L23.8098 23.7371ZM23.7555 23.6013L23.8098 23.7371L23.7555 23.6013ZM23.8189 23.7371V23.6103V23.7371ZM23.8189 23.6828V23.7371V23.6828ZM23.8189 23.7371L23.9457 23.6556L23.8189 23.7371ZM23.8189 23.7371H23.7645H23.8189ZM23.8189 23.7371L23.683 23.6828L23.8189 23.7371ZM44.9207 22.442L44.0151 22.4964C44.3121 22.347 44.5792 22.1444 44.803 21.8986C44.0999 21.3737 43.2172 21.1489 42.3487 21.2737L41.3343 21.4096C41.9987 21.2551 42.592 20.882 43.0189 20.3499C42.327 19.9208 41.4931 19.7839 40.7004 19.9696L39.8581 20.1598C40.4589 19.9598 40.9754 19.5644 41.3253 19.0367C40.6509 18.6968 39.8692 18.6382 39.1517 18.8737L38.4362 19.1001C38.9798 18.8679 39.4296 18.4596 39.7132 17.9409C39.129 17.7237 38.4861 17.7237 37.9019 17.9409C38.4698 17.6596 38.9215 17.1887 39.1789 16.6096C38.6159 16.4388 38.0113 16.4676 37.4672 16.6911L38.1283 16.3469C38.7961 16.0001 39.3051 15.41 39.5502 14.6986C38.9363 14.5685 38.2963 14.6549 37.7389 14.9432L38.4543 14.4813C39.1376 14.0465 39.6273 13.3655 39.8219 12.5794C39.1479 12.4967 38.4662 12.6504 37.8928 13.0141L38.6989 12.3982C39.3937 11.8669 39.8574 11.0886 39.994 10.2247C39.6628 10.2037 39.3307 10.2467 39.0158 10.3515L39.686 9.76277C40.056 9.39852 40.338 8.9547 40.5106 8.46506C40.6833 7.97541 40.742 7.45285 40.6823 6.93711C40.1662 6.8711 39.6418 6.92681 39.1512 7.09981C38.6605 7.2728 38.2171 7.55826 37.8566 7.93334L37.2589 8.61259C37.3646 8.29472 37.4107 7.96003 37.3947 7.62542C36.5278 7.75368 35.7466 8.21914 35.2211 8.92051L34.5962 9.73561C34.9538 9.15638 35.1069 8.47397 35.0309 7.79749C34.2411 7.98407 33.5574 8.47575 33.1291 9.16504L32.6038 9.98919C32.883 9.42898 32.969 8.79208 32.8483 8.17787C32.1325 8.41534 31.5399 8.92656 31.2 9.59976L30.8558 10.2609C31.0743 9.71248 31.103 9.10674 30.9374 8.54013C30.3524 8.7887 29.8787 9.243 29.606 9.81711C29.8132 9.23111 29.8132 8.59179 29.606 8.00579C29.0837 8.28476 28.6741 8.73598 28.4468 9.28277L28.6732 8.5673C28.9009 7.84883 28.8425 7.07019 28.5102 6.39372C27.9759 6.73657 27.5786 7.25566 27.3872 7.86089L27.5774 7.01862C27.6707 6.61293 27.6827 6.19276 27.6128 5.78238C27.5428 5.372 27.3923 4.97955 27.1698 4.62768C26.6335 5.04685 26.259 5.63894 26.1102 6.30315L26.2641 5.29787C26.3791 4.42984 26.1553 3.55087 25.6392 2.84353C25.392 3.06252 25.1891 3.32692 25.0415 3.6224L25.0958 2.71674C25.1037 2.19565 24.9918 1.67971 24.7688 1.20866C24.5459 0.737616 24.2178 0.324029 23.8098 -0.000244141C23.3959 0.319298 23.0631 0.731732 22.8381 1.20372C22.6131 1.67571 22.5023 2.19402 22.5147 2.71674L22.569 3.6224C22.4197 3.3254 22.2171 3.05833 21.9713 2.83447C21.4464 3.53762 21.2216 4.42024 21.3464 5.28881L21.4823 6.30315C21.326 5.64204 20.953 5.05224 20.4226 4.62768C19.9935 5.31951 19.8566 6.15348 20.0423 6.94617L20.2324 7.78843C20.0342 7.18435 19.6387 6.66443 19.1094 6.31221C18.7695 6.9866 18.7109 7.76825 18.9464 8.48579L19.1728 9.20127C18.9406 8.66279 18.536 8.21677 18.0226 7.93334C17.8055 8.51758 17.8055 9.16042 18.0226 9.74466C17.7431 9.17337 17.2719 8.71826 16.6913 8.45862C16.5213 9.02164 16.5501 9.62601 16.7728 10.1703L16.4287 9.50919C16.0819 8.84142 15.4918 8.3324 14.7804 8.0873C14.6503 8.7012 14.7367 9.34121 15.0249 9.89862L14.563 9.1741C14.1283 8.49083 13.4472 8.00112 12.6611 7.80655C12.5792 8.48046 12.7328 9.16196 13.0958 9.73561L12.48 8.92957C11.9487 8.23473 11.1704 7.77099 10.3064 7.63447C10.2854 7.96563 10.3285 8.29773 10.4332 8.61259L9.84452 7.9424C9.47073 7.57507 9.01719 7.29897 8.51923 7.1356C8.02127 6.97223 7.49233 6.926 6.97358 7.00051C6.90756 7.51658 6.96327 8.04093 7.13627 8.5316C7.30926 9.02227 7.59472 9.46562 7.9698 9.82617L8.64905 10.4239C8.33118 10.3182 7.9965 10.2721 7.66188 10.2881C7.79014 11.155 8.2556 11.9362 8.95697 12.4616L9.76301 13.0775C9.18378 12.7199 8.50137 12.5668 7.8249 12.6428C8.02015 13.424 8.51453 14.0973 9.2015 14.5175L9.92603 14.9794C9.36581 14.7001 8.72892 14.6141 8.11471 14.7349C8.35305 15.4501 8.86402 16.0425 9.53659 16.3832L10.2068 16.7273C9.65852 16.5081 9.05255 16.4794 8.48603 16.6458C8.7346 17.2308 9.18889 17.7044 9.76301 17.9771C9.17701 17.7699 8.53769 17.7699 7.95169 17.9771C8.22778 18.4984 8.67579 18.908 9.21961 19.1364L8.5132 18.9099C7.79461 18.6832 7.01634 18.7416 6.33961 19.073C6.68246 19.6072 7.20155 20.0045 7.80678 20.196L6.97358 20.0058C6.18348 19.8314 5.35659 19.9676 4.66414 20.3862C5.08331 20.9225 5.6754 21.2969 6.33961 21.4458L5.32527 21.3099C4.4573 21.1959 3.57868 21.4196 2.87093 21.9349C3.08992 22.1821 3.35433 22.385 3.6498 22.5326L2.74414 22.4782C2.2223 22.4715 1.7059 22.5848 1.2348 22.8093C0.763699 23.0339 0.350516 23.3637 0.0271606 23.7733C0.347645 24.1855 0.760494 24.5167 1.23243 24.7401C1.70436 24.9635 2.22218 25.0728 2.74414 25.0594L3.6498 25.005C3.3528 25.1544 3.08574 25.357 2.86188 25.6028C3.54437 26.1377 4.40887 26.3847 5.27093 26.2911L6.28527 26.1552C5.62334 26.3048 5.03041 26.6714 4.60075 27.1967C5.28978 27.6244 6.12037 27.7612 6.91018 27.5771L7.75244 27.3869C7.14836 27.5851 6.62843 27.9807 6.27622 28.5099C6.95061 28.8498 7.73226 28.9085 8.4498 28.673L9.16527 28.4465C8.62164 28.6788 8.17189 29.0871 7.88829 29.6058C8.47239 29.8238 9.11552 29.8238 9.69961 29.6058C9.13171 29.8871 8.68 30.358 8.42263 30.9371C8.98835 31.11 9.59655 31.0812 10.1434 30.8556L9.48226 31.1998C8.81747 31.5666 8.32079 32.1769 8.09659 32.9024C8.73098 33.0374 9.39273 32.941 9.96226 32.6307L9.23773 33.0926C8.55446 33.5273 8.06475 34.2084 7.87018 34.9945C8.54704 35.0777 9.23185 34.9241 9.80829 34.5598L8.9932 35.1847C8.29837 35.716 7.83462 36.4943 7.6981 37.3582C8.02926 37.3792 8.36136 37.3362 8.67622 37.2315L8.00603 37.8201C7.63607 38.1844 7.35405 38.6282 7.18142 39.1179C7.00879 39.6075 6.95009 40.1301 7.0098 40.6458C7.52587 40.7118 8.05022 40.6561 8.54089 40.4831C9.03156 40.3101 9.47491 40.0246 9.83546 39.6496L10.4332 38.9703C10.3274 39.2882 10.2814 39.6229 10.2973 39.9575C11.1643 39.8292 11.9455 39.3638 12.4709 38.6624L13.0868 37.8473C12.7298 38.4268 12.5768 39.109 12.6521 39.7854C13.4154 39.5883 14.0737 39.1052 14.4906 38.436L14.9524 37.7024C14.6708 38.2618 14.5816 38.8985 14.6989 39.5137C15.4141 39.2754 16.0065 38.7644 16.3472 38.0918L16.6913 37.4216C16.4728 37.9701 16.4442 38.5758 16.6098 39.1424C17.1948 38.8938 17.6684 38.4395 17.9411 37.8654C17.7339 38.4514 17.7339 39.0907 17.9411 39.6767C18.4639 39.3984 18.8737 38.947 19.1004 38.3998L18.874 39.1152C18.6472 39.8338 18.7056 40.6121 19.037 41.2888C19.5885 40.9723 20.0116 40.4723 20.2324 39.876L20.0423 40.7182C19.8655 41.5112 20.0018 42.3418 20.4226 43.0367C20.9589 42.6176 21.3334 42.0255 21.4823 41.3613L21.3464 42.3756C21.2314 43.2436 21.4552 44.1226 21.9713 44.8299C22.2186 44.611 22.4215 44.3465 22.569 44.0511L22.5147 44.9567C22.5069 45.4778 22.6187 45.9938 22.8417 46.4648C23.0647 46.9359 23.3928 47.3494 23.8007 47.6737C24.2146 47.3542 24.5475 46.9417 24.7725 46.4698C24.9975 45.9978 25.1082 45.4795 25.0958 44.9567L25.0415 44.0511C25.1909 44.3481 25.3935 44.6151 25.6392 44.839C25.9003 44.4897 26.0899 44.0923 26.1972 43.6696C26.3044 43.2469 26.3272 42.8071 26.2641 42.3756L26.1283 41.3613C26.2798 42.0199 26.6462 42.6094 27.1698 43.0367C27.599 42.3449 27.7358 41.5109 27.5502 40.7182L27.3872 39.876C27.5854 40.4801 27.9809 41 28.5102 41.3522C28.8491 40.6775 28.9077 39.8963 28.6732 39.1786L28.4468 38.4632C28.6796 39.0064 29.0878 39.456 29.606 39.7401C29.8232 39.1559 29.8232 38.5131 29.606 37.9288C29.8873 38.4967 30.3582 38.9484 30.9374 39.2058C31.1103 38.6401 31.0815 38.0319 30.8558 37.485L31.2 38.1462C31.5468 38.8139 32.1369 39.323 32.8483 39.5681C32.9784 38.9542 32.892 38.3142 32.6038 37.7567L33.0657 38.4813C33.5004 39.1645 34.1814 39.6542 34.9675 39.8488C35.0516 39.1719 34.8979 38.4869 34.5328 37.9107L35.1487 38.7167C35.68 39.4116 36.4583 39.8753 37.3223 40.0118C37.3634 39.6621 37.3326 39.3077 37.2317 38.9703L37.8204 39.6405C38.1846 40.0105 38.6284 40.2925 39.1181 40.4651C39.6077 40.6378 40.1303 40.6964 40.646 40.6367C40.712 40.1207 40.6563 39.5963 40.4833 39.1057C40.3103 38.615 40.0249 38.1716 39.6498 37.8111L38.9434 37.2496C39.2613 37.3553 39.5959 37.4014 39.9306 37.3854C39.8023 36.5185 39.3368 35.7373 38.6355 35.2118L37.8204 34.5869C38.3999 34.9439 39.082 35.0969 39.7585 35.0216C39.5719 34.2319 39.0802 33.5481 38.3909 33.1198L37.6664 32.6579C38.2266 32.9371 38.8635 33.0231 39.4777 32.9024C39.2394 32.1871 38.7284 31.5948 38.0558 31.2541L37.3857 30.9099C37.9342 31.1277 38.5397 31.1564 39.1064 30.9915C38.8578 30.4065 38.4035 29.9328 37.8294 29.6601C38.4154 29.8673 39.0547 29.8673 39.6407 29.6601C39.3647 29.1389 38.9166 28.7293 38.3728 28.5009L39.0883 28.7273C39.8069 28.9541 40.5852 28.8957 41.2619 28.5643C40.9373 28.0297 40.4383 27.6235 39.849 27.4141L40.6913 27.6043C41.4878 27.773 42.3186 27.6269 43.0098 27.1967C42.5901 26.661 41.9983 26.2867 41.3343 26.1371L42.3396 26.273C43.2076 26.388 44.0866 26.1642 44.794 25.6481C44.575 25.4008 44.3106 25.1979 44.0151 25.0503L44.9207 25.1047C45.4418 25.1125 45.9578 25.0006 46.4288 24.7777C46.8999 24.5547 47.3135 24.2266 47.6377 23.8186C47.3182 23.4048 46.9058 23.0719 46.4338 22.8469C45.9618 22.6219 45.4435 22.5111 44.9207 22.5235" fill="#C9C9C9"/>
<path d="M23.8098 0.0268555V23.8367L25.0959 2.74384C25.1037 2.22275 24.9918 1.70681 24.7689 1.23576C24.5459 0.764716 24.2178 0.351129 23.8098 0.0268555" fill="#807E7D"/>
<path d="M6.97357 7.00044L23.8098 23.8367L9.79923 7.99666C9.43498 7.6267 8.99116 7.34468 8.50151 7.17205C8.01187 6.99942 7.48931 6.94073 6.97357 7.00044Z" fill="#807E7D"/>
<path d="M0 23.8366H23.8098L2.71698 22.5415C2.19514 22.5348 1.67874 22.6481 1.20764 22.8726C0.736538 23.0972 0.323356 23.427 0 23.8366" fill="#807E7D"/>
<path d="M6.97358 40.6729L23.8098 23.8367L7.96981 37.8472C7.59985 38.2115 7.31783 38.6553 7.1452 39.145C6.97257 39.6346 6.91387 40.1572 6.97358 40.6729Z" fill="#807E7D"/>
<path d="M23.8098 47.6465V23.8367L22.5238 44.9386C22.5159 45.4596 22.6278 45.9756 22.8508 46.4466C23.0737 46.9177 23.4018 47.3313 23.8098 47.6555" fill="#807E7D"/>
<path d="M40.646 40.6729L23.8098 23.8367L37.8204 39.6676C38.1846 40.0376 38.6285 40.3196 39.1181 40.4922C39.6077 40.6649 40.1303 40.7235 40.646 40.6638" fill="#807E7D"/>
<path d="M47.6196 23.8367H23.8098L44.9117 25.1227C45.4328 25.1305 45.9487 25.0187 46.4198 24.7957C46.8908 24.5727 47.3044 24.2446 47.6287 23.8367" fill="#807E7D"/>
<path d="M40.646 7.00049L23.8098 23.8367L39.6408 9.82615C40.0113 9.4623 40.2937 9.01852 40.4663 8.52877C40.639 8.03902 40.6974 7.51626 40.637 7.00049" fill="#807E7D"/>
<path d="M21.9713 2.84351L23.7826 23.8367L23.0128 5.15294C22.9756 4.27783 22.6026 3.45072 21.9713 2.84351Z" fill="#807E7D"/>
<path d="M7.66187 10.2881L23.8098 23.873L10.0347 11.1938C9.39014 10.5972 8.54001 10.2727 7.66187 10.2881Z" fill="#807E7D"/>
<path d="M2.81659 25.6753L23.8098 23.864L5.12602 24.661C4.25091 24.6982 3.4238 25.0712 2.81659 25.7025" fill="#807E7D"/>
<path d="M10.2611 39.9756L23.846 23.8276L11.1668 37.6027C10.571 38.2478 10.2467 39.0976 10.2611 39.9756Z" fill="#807E7D"/>
<path d="M25.6483 44.8299L23.837 23.8367L24.634 42.5204C24.6712 43.3955 25.0442 44.2227 25.6755 44.8299" fill="#807E7D"/>
<path d="M39.9487 37.3854L23.8008 23.8005L37.5759 36.4798C38.2209 37.0756 39.0707 37.3999 39.9487 37.3854Z" fill="#807E7D"/>
<path d="M44.803 21.9984L23.8098 23.8097L42.4936 23.0127C43.3687 22.9755 44.1958 22.6025 44.803 21.9712" fill="#807E7D"/>
<path d="M37.3585 7.68872L23.7736 23.8366L36.4528 10.0616C37.0494 9.41699 37.3739 8.56686 37.3585 7.68872Z" fill="#807E7D"/>
<path d="M20.4227 4.62769L23.8098 23.8367L21.5638 6.67448C21.4606 5.8709 21.052 5.13792 20.4227 4.62769Z" fill="#807E7D"/>
<path d="M7.83398 12.6517L23.8098 23.8366L10.0891 13.2857C9.44675 12.7925 8.63921 12.5655 7.83398 12.6517Z" fill="#807E7D"/>
<path d="M4.60077 27.1967L23.8098 23.8096L6.64756 26.0737C5.84669 26.1722 5.11412 26.5742 4.60077 27.1967Z" fill="#807E7D"/>
<path d="M12.6249 39.8125L23.8098 23.8367L13.2589 37.5574C12.7657 38.1998 12.5387 39.0073 12.6249 39.8125Z" fill="#807E7D"/>
<path d="M27.1698 43.0367L23.8098 23.8367L26.0559 40.9989C26.1551 41.7949 26.5534 42.5234 27.1698 43.0367Z" fill="#807E7D"/>
<path d="M39.7857 35.0216L23.8098 23.8367L37.5306 34.3876C38.1729 34.8808 38.9804 35.1078 39.7857 35.0216Z" fill="#807E7D"/>
<path d="M43.0098 20.4495L23.8098 23.8366L40.9721 21.5906C41.7757 21.4874 42.5086 21.0788 43.0189 20.4495" fill="#807E7D"/>
<path d="M34.9947 7.86084L23.8098 23.8367L34.3608 10.1159C34.854 9.4736 35.081 8.66607 34.9947 7.86084Z" fill="#807E7D"/>
<path d="M19.1094 6.31228L23.8008 23.8368L20.3411 8.11454C20.1829 7.3755 19.7447 6.72638 19.1185 6.30322" fill="#807E7D"/>
<path d="M8.0966 14.7621L23.8098 23.8187L10.2249 15.1605C9.58892 14.7526 8.81975 14.6065 8.07849 14.753" fill="#807E7D"/>
<path d="M6.2853 28.528L23.8098 23.8367L8.08757 27.3053C7.34889 27.4645 6.70008 27.9024 6.27625 28.528" fill="#807E7D"/>
<path d="M14.7351 39.5408L23.7917 23.8276L15.1245 37.4125C14.7175 38.0489 14.5715 38.8177 14.717 39.559" fill="#807E7D"/>
<path d="M28.5011 41.3521L23.8098 23.8367L27.2785 39.5499C27.4376 40.2885 27.8756 40.9374 28.5011 41.3612" fill="#807E7D"/>
<path d="M39.514 32.9023L23.8008 23.8457L37.3857 32.5129C38.022 32.9199 38.7908 33.0659 39.5321 32.9204" fill="#807E7D"/>
<path d="M41.3253 19.1365L23.8098 23.8369L39.5321 20.3682C40.2708 20.209 40.9196 19.7711 41.3434 19.1455" fill="#807E7D"/>
<path d="M32.8755 8.12358L23.8188 23.8368L32.486 10.2519C32.8931 9.61554 33.0391 8.84673 32.8936 8.10547" fill="#807E7D"/>
<path d="M18.0226 7.93335L23.8098 23.8367L19.2815 9.5092C19.0796 8.84185 18.6289 8.27765 18.0226 7.93335Z" fill="#807E7D"/>
<path d="M8.46796 16.6821L23.8098 23.8368L10.4966 16.8904C9.87311 16.5602 9.14558 16.4855 8.46796 16.6821Z" fill="#807E7D"/>
<path d="M7.90643 29.6238L23.8098 23.8367L9.48228 28.365C8.8103 28.5734 8.24539 29.0345 7.90643 29.651" fill="#807E7D"/>
<path d="M16.6551 39.1786L23.8098 23.8367L16.8634 37.1589C16.5332 37.7825 16.4585 38.51 16.6551 39.1876" fill="#807E7D"/>
<path d="M29.597 39.7401L23.8098 23.8367L28.3381 38.1642C28.5466 38.8362 29.0076 39.4011 29.6242 39.7401" fill="#807E7D"/>
<path d="M39.1517 30.9914L23.8098 23.8367L37.1321 30.8193C37.7556 31.1495 38.4831 31.2242 39.1608 31.0276" fill="#807E7D"/>
<path d="M39.7132 18.0496L23.8098 23.8368L38.1374 19.3085C38.8093 19.1 39.3743 18.639 39.7132 18.0225" fill="#807E7D"/>
<path d="M30.9645 8.49487L23.8098 23.8368L30.7925 10.5236C31.1227 9.90002 31.1974 9.17249 31.0008 8.49487" fill="#807E7D"/>
<path d="M29.597 7.93335L23.8098 23.8367L29.5698 9.9892C29.8342 9.33568 29.8342 8.60499 29.5698 7.95146" fill="#807E7D"/>
<path d="M16.6551 8.49487L23.8098 23.8368L18.1132 9.98921C17.8462 9.3372 17.3364 8.81439 16.6913 8.5311" fill="#807E7D"/>
<path d="M7.90643 18.0495L23.8098 23.8367L9.96228 18.0767C9.30876 17.8123 8.57807 17.8123 7.92455 18.0767" fill="#807E7D"/>
<path d="M8.46796 30.9914L23.8098 23.8367L9.9623 29.5695C9.31028 29.8365 8.78748 30.3463 8.50418 30.9914" fill="#807E7D"/>
<path d="M18.0227 39.7401L23.8098 23.8367L18.0498 37.7023C17.7855 38.3559 17.7855 39.0865 18.0498 39.7401" fill="#807E7D"/>
<path d="M30.9645 39.1786L23.8098 23.8367L29.5426 37.7204C29.8096 38.3725 30.3194 38.8953 30.9645 39.1786Z" fill="#807E7D"/>
<path d="M39.7132 29.6238L23.8098 23.8367L37.6755 29.5967C38.329 29.861 39.0597 29.861 39.7132 29.5967" fill="#807E7D"/>
<path d="M39.1517 16.6821L23.8098 23.8368L37.6936 18.1402C38.3456 17.8733 38.8684 17.3634 39.1517 16.7184" fill="#807E7D"/>
<path d="M28.5011 6.31226L23.8098 23.8368L28.6642 8.48584C28.8919 7.76737 28.8335 6.98873 28.5011 6.31226Z" fill="#807E7D"/>
<path d="M14.7351 8.12354L23.7917 23.8367L16.3925 9.54542C16.0457 8.87765 15.4556 8.36863 14.7442 8.12354" fill="#807E7D"/>
<path d="M6.28528 19.1364L23.8098 23.8277L8.45886 18.9825C7.74028 18.7557 6.962 18.8141 6.28528 19.1455" fill="#807E7D"/>
<path d="M8.09662 32.9023L23.8098 23.8457L9.52756 31.254C8.85637 31.599 8.3439 32.1893 8.09662 32.9023Z" fill="#807E7D"/>
<path d="M19.1094 41.3522L23.8008 23.8276L18.9555 39.1786C18.7287 39.8972 18.7871 40.6754 19.1185 41.3522" fill="#807E7D"/>
<path d="M32.8755 39.5408L23.8188 23.8276L31.2362 38.1099C31.583 38.7777 32.1731 39.2867 32.8845 39.5318" fill="#807E7D"/>
<path d="M41.3253 28.528L23.8098 23.8367L39.1517 28.691C39.8703 28.9178 40.6486 28.8594 41.3253 28.528Z" fill="#807E7D"/>
<path d="M39.514 14.762L23.8008 23.8186L38.0921 16.4193C38.7599 16.0725 39.2689 15.4824 39.514 14.771" fill="#807E7D"/>
<path d="M27.1698 4.62769L23.8098 23.8367L27.5683 6.94618C27.7397 6.15088 27.5969 5.32012 27.1698 4.62769Z" fill="#807E7D"/>
<path d="M12.6249 7.86084L23.8098 23.8367L14.4906 9.22839C14.0559 8.54512 13.3748 8.05541 12.5887 7.86084" fill="#807E7D"/>
<path d="M4.60077 20.4495L23.8098 23.8367L6.91926 20.0692C6.12916 19.8948 5.30227 20.031 4.60983 20.4495" fill="#807E7D"/>
<path d="M7.83398 35.0216L23.8098 23.8367L9.20153 33.1197C8.51827 33.5544 8.02856 34.2355 7.83398 35.0216Z" fill="#807E7D"/>
<path d="M20.4226 43.0367L23.8098 23.8276L20.0422 40.7273C19.8664 41.5203 20.0026 42.3505 20.4226 43.0457" fill="#807E7D"/>
<path d="M34.9947 39.8125L23.8098 23.8367L33.0928 38.4359C33.5276 39.1192 34.2086 39.6089 34.9947 39.8035" fill="#807E7D"/>
<path d="M43.0098 27.1967L23.8098 23.8367L40.7004 27.5952C41.4928 27.7641 42.3198 27.6214 43.0098 27.1967Z" fill="#807E7D"/>
<path d="M39.7857 12.6517L23.8098 23.8366L38.4091 14.5174C39.0923 14.0826 39.582 13.4016 39.7766 12.6155" fill="#807E7D"/>
<path d="M25.6483 2.84351L23.837 23.8367L26.2641 5.29785C26.3791 4.42982 26.1553 3.55085 25.6392 2.84351" fill="#807E7D"/>
<path d="M10.2611 7.68872L23.846 23.8366L12.4437 8.98382C11.9118 8.28969 11.1338 7.82613 10.2702 7.68872" fill="#807E7D"/>
<path d="M2.81659 21.9982L23.8098 23.8095L5.27093 21.3733C4.4029 21.2583 3.52393 21.4821 2.81659 21.9982Z" fill="#807E7D"/>
<path d="M7.66187 37.3854L23.8098 23.8005L8.95696 35.2028C8.26213 35.7341 7.79839 36.5124 7.66187 37.3764" fill="#807E7D"/>
<path d="M21.9713 44.8299L23.7826 23.8367L21.3464 42.3755C21.2314 43.2436 21.4552 44.1225 21.9713 44.8299Z" fill="#807E7D"/>
<path d="M37.3585 39.9756L23.7736 23.8276L35.1758 38.6805C35.7071 39.3753 36.4854 39.839 37.3494 39.9756" fill="#807E7D"/>
<path d="M44.803 25.6753L23.8098 23.864L42.3487 26.2912C43.2167 26.4062 44.0957 26.1824 44.803 25.6663" fill="#807E7D"/>
<path d="M39.9487 10.2881L23.8008 23.873L38.6536 12.4617C39.3484 11.9304 39.8122 11.1521 39.9487 10.2881Z" fill="#807E7D"/>
<path d="M23.8188 33.8352C23.8188 33.8352 19.5079 31.8971 18.0588 31.2722C17.6434 31.0561 17.2943 30.7314 17.0487 30.3327C16.8032 29.934 16.6702 29.4762 16.6641 29.008V13.811H30.9464V29.008C30.9338 29.47 30.7979 29.9203 30.5526 30.312C30.3074 30.7038 29.9618 31.0228 29.5517 31.2359C28.1117 31.8608 23.8098 33.799 23.8098 33.799" fill="#283A68"/>
<path d="M18.1132 31.1092C19.4445 31.6888 23.203 33.3733 23.7917 33.636C24.3713 33.3733 28.1208 31.6888 29.4521 31.1092C29.8386 30.9173 30.1668 30.6254 30.4025 30.2639C30.6382 29.9024 30.7728 29.4844 30.7925 29.0533V14.0013H16.8544V29.0533C16.8623 29.477 16.9832 29.8909 17.2045 30.2523C17.4258 30.6136 17.7395 30.9095 18.1132 31.1092ZM23.7917 34.0435H23.7102C23.7102 34.0435 19.3812 32.0963 17.9593 31.4805C17.5063 31.2481 17.1277 30.8931 16.8667 30.4559C16.6057 30.0188 16.4727 29.5171 16.483 29.008V13.6118H31.1366V29.008C31.131 29.5042 30.9896 29.9894 30.7277 30.4108C30.4659 30.8323 30.0936 31.1741 29.6513 31.399C28.2295 32.0148 23.9547 33.9439 23.9185 33.962L23.7917 34.0435Z" fill="#FFDC2E"/>
<path d="M28.0755 24.4798H27.6136C27.5522 24.242 27.4393 24.0205 27.2828 23.8311C27.1263 23.6417 26.93 23.4891 26.708 23.384C26.708 23.384 26.9525 21.3372 27.0793 20.2866C27.2556 19.5087 27.5952 18.7771 28.0755 18.1402V24.4798ZM28.0755 27.9123H26.1736C26.1689 27.4806 26.108 27.0513 25.9925 26.6353C26.3628 26.6115 26.7169 26.4745 27.0069 26.2429C27.2968 26.0113 27.5086 25.6962 27.6136 25.3402H28.0755V27.9123ZM24.2446 27.9123C24.2545 27.6606 24.3494 27.4197 24.5139 27.2289C24.6784 27.0381 24.9027 26.9086 25.1502 26.8617C25.2512 27.2024 25.2971 27.5571 25.2861 27.9123H24.2446ZM24.2446 30.5206V28.7093H25.1502C25.0536 29.3798 24.7347 29.9985 24.2446 30.4663V30.5206ZM23.8008 26.6353L22.8136 25.9742C23.2433 25.2482 23.5752 24.4686 23.8008 23.6557C24.0261 24.4687 24.3581 25.2483 24.788 25.9742L23.8008 26.6353ZM22.3336 27.867C22.322 27.5118 22.3678 27.157 22.4695 26.8164C22.717 26.8634 22.9413 26.9928 23.1058 27.1836C23.2702 27.3744 23.3652 27.6153 23.3751 27.867H22.3336ZM23.357 30.4753C22.8669 30.0076 22.548 29.3889 22.4514 28.7183H23.357V30.4753ZM21.4642 27.867H19.5623V25.304H20.0242C20.1292 25.6599 20.341 25.975 20.6309 26.2067C20.9209 26.4383 21.275 26.5753 21.6453 26.5991C21.5301 27.0151 21.4692 27.4444 21.4642 27.8761V27.867ZM19.5623 18.1402C20.0424 18.7683 20.3849 19.4903 20.5676 20.2595C20.6944 21.31 20.9389 23.3568 20.9389 23.3568C20.7168 23.4619 20.5206 23.6146 20.3641 23.8039C20.2076 23.9933 20.0946 24.2148 20.0332 24.4527H19.5623V18.1402ZM26.2008 20.187L25.757 24.0632C25.8231 24.0536 25.8902 24.0536 25.9563 24.0632C26.0921 24.0632 26.8076 24.2444 26.8076 24.8964C26.8079 25.129 26.7187 25.3527 26.5585 25.5213C26.3984 25.6899 26.1795 25.7905 25.9472 25.8021C25.6755 25.8021 25.6483 25.8021 25.6483 25.8021C24.7696 24.4225 24.3074 22.8189 24.317 21.1832C24.317 19.3719 24.4347 17.7961 24.4347 16.8814C24.436 16.2575 24.2144 15.6536 23.8098 15.1787C23.4046 15.6532 23.1829 16.2573 23.1849 16.8814C23.1849 17.787 23.3027 19.4081 23.3027 21.1832C23.3123 22.8189 22.8501 24.4225 21.9714 25.8021C21.9714 25.8021 21.9714 25.8021 21.6815 25.8021C21.4493 25.7905 21.2304 25.6899 21.0702 25.5213C20.91 25.3527 20.8209 25.129 20.8212 24.8964C20.8212 24.2444 21.5366 24.0632 21.6725 24.0632C21.7415 24.0528 21.8117 24.0528 21.8808 24.0632L21.437 20.187C21.2966 19.3822 20.9802 18.6183 20.5106 17.9499C20.0409 17.2814 19.4295 16.7248 18.72 16.3198V28.7093H21.6C21.795 29.8518 22.4205 30.876 23.348 31.5712C23.348 31.5712 23.837 31.9878 23.8551 32.1236C23.8551 31.9878 24.3623 31.5712 24.3623 31.5712C25.2897 30.876 25.9153 29.8518 26.1102 28.7093H28.9812V16.3289C28.2716 16.7339 27.6603 17.2905 27.1906 17.9589C26.721 18.6274 26.4046 19.3913 26.2642 20.1961" fill="#FFDC2E"/>
</g>
<defs>
<clipPath id="clip0">
<rect width="48" height="48" fill="white"/>
</clipPath>
</defs>
</svg>
