<svg width="48" height="48" viewBox="0 0 48 48" fill="none" xmlns="http://www.w3.org/2000/svg">
<path d="M37.2231 26.4628L24.0661 2L20.1653 9.27273L31.0083 29.5041L37.2231 26.4628Z" fill="#0098D8"/>
<path d="M39.0083 29.7686L33.3223 33.7355L40.1984 46.5619H48L39.0083 29.7686Z" fill="#0098D8"/>
<path d="M39.4711 30.6943H38.8099C38.4132 30.9588 38.0165 31.1571 37.5537 31.4216C36.0331 32.215 33.3223 33.8018 33.9835 35.1902L36.0992 39.0249L39.6694 31.091L39.4711 30.6943Z" fill="#13588F"/>
<path d="M1.98346 43.1239L18.7107 11.9834L22.6116 19.2561L12.6281 37.9008L1.98346 43.1239Z" fill="#FFCB05"/>
<path d="M45.3554 24.4792H47.1405L20.0331 46.5619H0L45.3554 24.4792Z" fill="#6D6E71"/>
<path d="M45.9504 24.4792H46.281L10.3802 46.5619H8.39673L45.9504 24.4792Z" fill="white"/>
</svg>
