<svg xmlns="http://www.w3.org/2000/svg" xmlns:xlink="http://www.w3.org/1999/xlink" width="0" height="0" style="position:absolute">
	
		<symbol id="icon-angle-down" viewBox="0 0 24 24">
			<path fill-rule="evenodd" clip-rule="evenodd" d="M13 16.414a1 1 0 0 1-1.414 0L4.293 9.121a1 1 0 1 1 1.414-1.414l6.232 6.232a.5.5 0 0 0 .707 0l6.233-6.232a1 1 0 1 1 1.414 1.414L13 16.414z"></path>
		</symbol>
	
		<symbol id="icon-arrow-left" viewBox="0 0 16 16">
			<path d="M13.333 7.333H5.22l3.727-3.726L8 2.667 2.667 8 8 13.333l.94-.94-3.72-3.726h8.113V7.333z"></path>
		</symbol>
	
		<symbol id="icon-arrow-right" viewBox="0 0 16 16">
			<path d="M8 2.667l-.94.94 3.72 3.726H2.667v1.334h8.113l-3.72 3.726.94.94L13.333 8 8 2.667z"></path>
		</symbol>
	
		<symbol id="icon-close-icon" viewBox="0 0 24 24">
			<path d="M19 6.41L17.59 5 12 10.59 6.41 5 5 6.41 10.59 12 5 17.59 6.41 19 12 13.41 17.59 19 19 17.59 13.41 12 19 6.41z"></path>
		</symbol>
	
		<symbol id="icon-download-icon" viewBox="0 0 24 24">
			<path d="M5 19.998h14v-2H5v2zm14-11h-4v-6H9v6H5l7 7 7-7z"></path>
		</symbol>
	
		<symbol id="icon-facebook-icon" viewBox="0 0 24 24">
			<path d="M17 2v4.002h-2c-.69 0-1 .809-1 1.5v2.5h3v4h-3v8L10 22v-7.998H7v-4h3v-4a4 4 0 0 1 4-4L17 2z"></path>
		</symbol>
	
		<symbol id="icon-file-outline" viewBox="0 0 24 24">
			<path d="M14 1.998H6c-1.1 0-2 .9-2 2v16c0 1.1.9 2 2 2h12c1.1 0 2-.9 2-2v-12l-6-6zm4 18H6v-16h7v5h5v11z"></path>
		</symbol>
	
		<symbol id="icon-search-icon" viewBox="0 0 24 24">
			<path d="M15.5 14h-.79l-.28-.27A6.47 6.47 0 0 0 16 9.5 6.5 6.5 0 1 0 9.5 16c1.61 0 3.09-.59 4.23-1.57l.27.28v.79l5 4.99L20.49 19l-4.99-5zm-6 0C7.01 14 5 11.99 5 9.5S7.01 5 9.5 5 14 7.01 14 9.5 11.99 14 9.5 14z"></path>
		</symbol>
	
		<symbol id="icon-youtube-btn" viewBox="0 0 68 48">
			<path class="ytp-large-play-button-bg" d="M66.52 7.74c-.78-2.93-2.49-5.41-5.42-6.19C55.79.13 34 0 34 0S12.21.13 6.9 1.55c-2.93.78-4.63 3.26-5.42 6.19C.06 13.05 0 24 0 24s.06 10.95 1.48 16.26c.78 2.93 2.49 5.41 5.42 6.19C12.21 47.87 34 48 34 48s21.79-.13 27.1-1.55c2.93-.78 4.64-3.26 5.42-6.19C67.94 34.95 68 24 68 24s-.06-10.95-1.48-16.26z"></path><path d="M45 24L27 14v20"></path>
		</symbol>
	
</svg>
